<svg width="70" height="85" viewBox="0 0 70 85" fill="none" xmlns="http://www.w3.org/2000/svg">
<circle cx="2" cy="2.5" r="2" fill="#9D4EDD"/>
<circle cx="18.3427" cy="2.5" r="2" fill="#9D4EDD"/>
<circle cx="34.6854" cy="2.5" r="2" fill="#9D4EDD"/>
<circle cx="51.0281" cy="2.5" r="2" fill="#9D4EDD"/>
<circle cx="67.3708" cy="2.5" r="2" fill="#9D4EDD"/>
<circle cx="2" cy="22.5" r="2" fill="#9D4EDD"/>
<circle cx="18.3427" cy="22.5" r="2" fill="#9D4EDD"/>
<circle cx="34.6854" cy="22.5" r="2" fill="#9D4EDD"/>
<circle cx="51.0281" cy="22.5" r="2" fill="#9D4EDD"/>
<circle cx="67.3708" cy="22.5" r="2" fill="#9D4EDD"/>
<circle cx="2" cy="42.5" r="2" fill="#9D4EDD"/>
<circle cx="18.3427" cy="42.5" r="2" fill="#9D4EDD"/>
<circle cx="34.6854" cy="42.5" r="2" fill="#9D4EDD"/>
<circle cx="51.0281" cy="42.5" r="2" fill="#9D4EDD"/>
<circle cx="67.3708" cy="42.5" r="2" fill="#9D4EDD"/>
<circle cx="2" cy="62.5" r="2" fill="#9D4EDD"/>
<circle cx="18.3427" cy="62.5" r="2" fill="#9D4EDD"/>
<circle cx="34.6854" cy="62.5" r="2" fill="#9D4EDD"/>
<circle cx="51.0281" cy="62.5" r="2" fill="#9D4EDD"/>
<circle cx="67.3708" cy="62.5" r="2" fill="#9D4EDD"/>
<circle cx="2" cy="82.5" r="2" fill="#9D4EDD"/>
<circle cx="18.3427" cy="82.5" r="2" fill="#9D4EDD"/>
<circle cx="34.6854" cy="82.5" r="2" fill="#9D4EDD"/>
<circle cx="51.0281" cy="82.5" r="2" fill="#9D4EDD"/>
<circle cx="67.3708" cy="82.5" r="2" fill="#9D4EDD"/>
</svg>
